<svg xmlns="http://www.w3.org/2000/svg" version="1.1" xmlns:xlink="http://www.w3.org/1999/xlink" xmlns:svgjs="http://svgjs.dev/svgjs" width="1000" height="1000" viewBox="0 0 1000 1000"><rect width="1000" height="1000" fill="#ffffff"></rect><g transform="matrix(0.7,0,0,0.7,149.5757575757575,386.1759399029238)"><svg viewBox="0 0 396 129" data-background-color="#fafafa" preserveAspectRatio="xMidYMid meet" height="325" width="1000" xmlns="http://www.w3.org/2000/svg" xmlns:xlink="http://www.w3.org/1999/xlink"><g id="tight-bounds" transform="matrix(1,0,0,1,0.24000000000003752,0.041996068436901623)"><svg viewBox="0 0 395.5199999999999 128.9160087540933" height="128.9160087540933" width="395.5199999999999"><g><svg viewBox="0 0 395.5199999999999 128.9160087540933" height="128.9160087540933" width="395.5199999999999"><g><svg viewBox="0 0 395.5199999999999 128.9160087540933" height="128.9160087540933" width="395.5199999999999"><g><svg viewBox="0 0 395.5199999999999 128.9160087540933" height="128.9160087540933" width="395.5199999999999"><g><rect width="75.54431999999998" height="6.621904366863996" y="106.52897387186614" fill="#130912" data-fill-palette-color="tertiary"></rect><rect width="75.54431999999998" height="6.621904366863996" y="106.52897387186614" x="319.97567999999995" fill="#130912" data-fill-palette-color="tertiary"></rect></g><g><svg viewBox="0 0 395.5199999999999 73.42901517099511" height="73.42901517099511" width="395.5199999999999"><g transform="matrix(1,0,0,1,0,0)"><svg width="395.5199999999999" viewBox="2 -35.29999923706055 194.44000244140625 36.099998474121094" height="73.42901517099511" data-palette-color="#130912"><path d="M33.55-0.4L33.75-0.4 33.75 0 26.3 0 12.75-17.9 9.95-14.7 9.95-0.8 14.3-0.4 14.3 0 2 0 2-0.4 6.1-0.8 6.1-33.7 2-34.1 2-34.5 14.3-34.5 14.3-34.1 9.95-33.7 9.95-15.6 23.55-31.3Q24.35-32.25 24.35-32.85L24.35-32.85Q24.35-33.35 23.58-33.6 22.8-33.85 20.45-34.1L20.45-34.1 20.45-34.5 30.65-34.5 30.65-34.1Q27.75-33.6 26.73-33.15 25.7-32.7 24.55-31.4L24.55-31.4 15.4-20.9 29.85-2Q30.7-1.05 31.43-0.73 32.15-0.4 33.55-0.4L33.55-0.4ZM34.8-34.1L34.8-34.5 46.85-34.5 46.85-34.1 42.75-33.7 42.75-0.8 46.85-0.4 46.85 0 34.8 0 34.8-0.4 38.9-0.8 38.9-33.7 34.8-34.1ZM80.5-0.4L81.2-0.4 81.2 0 76.05 0Q74.85 0 74.25-0.35 73.65-0.7 73-1.7L73-1.7 65.35-14.05Q64.65-15.2 64.17-15.48 63.7-15.75 62.5-15.75L62.5-15.75 58.8-15.75 58.8-0.8 63.15-0.4 63.15 0 50.85 0 50.85-0.4 54.95-0.8 54.95-33.7 50.85-34.1 50.85-34.5 63.5-34.5Q69.4-34.5 72.5-32.13 75.6-29.75 75.6-25.25L75.6-25.25Q75.6-21.75 73.7-19.5 71.8-17.25 68.2-16.4L68.2-16.4 68.25-16.4 77.4-2.1Q78.05-1.1 78.67-0.75 79.3-0.4 80.5-0.4L80.5-0.4ZM63.35-33.9L58.8-33.9 58.8-16.5 63.35-16.5Q67.35-16.5 69.27-18.63 71.2-20.75 71.2-25.15L71.2-25.15Q71.2-29.6 69.25-31.75 67.3-33.9 63.35-33.9L63.35-33.9ZM109.04-0.9L113.19-0.4 113.19 0 100.94 0 100.94-0.4 105.04-0.9 100.34-13.7 88.24-13.7 84.09-2.65Q83.89-2.1 83.89-1.75L83.89-1.75Q83.89-1.2 84.22-0.98 84.54-0.75 85.39-0.65L85.39-0.65 88.44-0.4 88.44 0 77.79 0 77.79-0.4 80.59-0.65Q81.84-0.75 82.37-1.15 82.89-1.55 83.29-2.65L83.29-2.65 95.54-35.3 96.44-35.3 109.04-0.9ZM88.54-14.5L100.04-14.5 94.44-29.75 94.24-29.75 88.54-14.5ZM136.39-34.5L148.34-34.5 148.34-34.1 144.74-33.7Q143.54-33.55 143.14-33.1 142.74-32.65 142.74-31.45L142.74-31.45 142.74 0.8 142.24 0.8 119.79-31.05 119.59-31.05 119.59-3.05Q119.59-1.85 119.89-1.38 120.19-0.9 121.09-0.8L121.09-0.8 124.64-0.4 124.64 0 113.69 0 113.69-0.4 117.29-0.8Q118.19-0.9 118.49-1.38 118.79-1.85 118.79-3.05L118.79-3.05 118.79-32.15 118.59-32.45Q117.89-33.45 117.27-33.77 116.64-34.1 115.44-34.1L115.44-34.1 114.59-34.1 114.59-34.5 122.04-34.5 141.74-6.9 141.94-6.9 141.94-31.45Q141.94-32.65 141.64-33.15 141.34-33.65 140.44-33.7L140.44-33.7 136.39-34.1 136.39-34.5ZM163.59-33.95L163.59-0.8 158.19-0.4 158.19 0 172.84 0 172.84-0.4 167.44-0.8 167.44-33.95 174.74-33.95Q175.94-33.95 176.46-33.58 176.99-33.2 177.44-32.05L177.44-32.05 180.54-24.35 180.94-24.45 179.84-35.3 179.54-35.3Q178.44-34.8 177.66-34.65 176.89-34.5 175.69-34.5L175.69-34.5 156.44-34.5Q155.24-34.5 154.46-34.65 153.69-34.8 152.59-35.3L152.59-35.3 152.29-35.3 150.34-24.45 150.74-24.35 154.19-32.05Q154.69-33.2 155.24-33.58 155.79-33.95 156.99-33.95L156.99-33.95 163.59-33.95ZM184.39-34.1L184.39-34.5 196.44-34.5 196.44-34.1 192.34-33.7 192.34-0.8 196.44-0.4 196.44 0 184.39 0 184.39-0.4 188.49-0.8 188.49-33.7 184.39-34.1Z" opacity="1" transform="matrix(1,0,0,1,0,0)" fill="#000000" class="undefined-text-0" data-fill-palette-color="primary" id="text-0"></path></svg></g></svg></g><g transform="matrix(1,0,0,1,75.54431999999998,90.76384335650296)"><svg viewBox="0 0 244.43135999999996 38.15216539759035" height="38.15216539759035" width="244.43135999999996"><g transform="matrix(1,0,0,1,8,0)"><svg width="228.43135999999996" viewBox="2.069999933242798 -31.3799991607666 190.77999877929688 31.871009826660156" height="38.15216539759035" data-palette-color="#130912"><path d="M22.87-11.55L22.87-11.55Q22.87-10.34 21.49-10.23L21.49-10.23 5.75-10.23Q5.98-4.37 10.34-2.64L10.34-2.64Q11.55-2.24 13.1-2.24L13.1-2.24Q16.32-2.24 19.66-4.6L19.66-4.6Q20.69-5.17 21.38-4.48L21.38-4.48Q21.72-4.14 21.61-3.79L21.61-3.79Q21.61-2.99 21.21-2.64L21.21-2.64Q18.05 0.52 12.87 0.46L12.87 0.46Q8.16 0.46 5.29-2.59L5.29-2.59Q2.07-5.75 2.07-10.92L2.07-10.92Q2.07-15.69 4.71-18.79L4.71-18.79Q7.47-22.24 12.53-22.24L12.53-22.24Q17.59-22.24 20.23-19.2L20.23-19.2Q22.76-16.44 22.87-11.55ZM5.86-12.59L19.48-12.59Q19.31-15.69 17.47-17.7L17.47-17.7Q15.75-19.54 12.53-19.54L12.53-19.54Q9.77-19.54 7.82-17.47L7.82-17.47Q6.03-15.4 5.86-12.59L5.86-12.59ZM43.79-1.61L43.79-3.62Q40.92 0.46 35.97 0.46L35.97 0.46Q31.49 0.46 28.96-3.1L28.96-3.1Q26.78-6.32 26.78-10.92L26.78-10.92Q26.78-18.62 31.89-21.26L31.89-21.26Q33.62-22.24 35.37-22.24 37.12-22.24 38.27-22.04 39.42-21.84 40.46-21.26L40.46-21.26Q42.64-20.17 43.79-18.28L43.79-18.28 43.79-29.66Q43.79-30.52 44.37-30.89 44.94-31.26 45.63-31.26L45.63-31.26Q46.32-31.26 46.84-30.89 47.35-30.52 47.35-29.66L47.35-29.66 47.35-1.61Q47.35-0.8 46.78-0.4 46.2 0 45.74 0 45.28 0 44.97-0.09 44.65-0.17 44.37-0.46L44.37-0.46Q43.79-0.86 43.79-1.61L43.79-1.61ZM36.66-2.24L36.66-2.24Q43.68-2.24 43.68-11.26L43.68-11.26Q43.68-17.07 40.17-18.85L40.17-18.85Q38.85-19.54 37.01-19.54 35.17-19.54 33.96-18.82 32.76-18.1 31.95-16.9L31.95-16.9Q30.51-14.66 30.51-11.21L30.51-11.21Q30.51-6.09 32.93-3.68L32.93-3.68Q34.31-2.24 36.66-2.24ZM72.29-20.11L72.29-1.61Q72.29-0.8 71.69-0.4 71.09 0 70.66 0 70.22 0 69.88-0.09 69.54-0.17 69.31-0.46L69.31-0.46Q68.73-0.86 68.73-1.61L68.73-1.61 68.73-3.62Q67.35-0.57 63.67 0.17L63.67 0.17Q62.52 0.46 61.2 0.46 59.88 0.46 58.44 0 57.01-0.46 55.97-1.49L55.97-1.49Q53.67-3.68 53.67-8.05L53.67-8.05 53.67-20.11Q53.67-20.92 54.19-21.38 54.71-21.84 55.4-21.84L55.4-21.84Q56.09-21.84 56.6-21.38 57.12-20.92 57.12-20.11L57.12-20.11 57.12-7.76Q57.12-4.66 58.39-3.45L58.39-3.45Q59.65-2.24 62.18-2.24L62.18-2.24Q66.43-2.24 68.04-5.69L68.04-5.69Q68.67-6.9 68.73-8.45L68.73-8.45 68.73-20.11Q68.73-20.92 69.31-21.38 69.88-21.84 70.57-21.84L70.57-21.84Q71.26-21.84 71.78-21.38 72.29-20.92 72.29-20.11L72.29-20.11ZM77.52-10.92L77.52-10.92Q77.52-15.69 80.22-18.85L80.22-18.85Q83.15-22.24 87.87-22.24L87.87-22.24Q91.89-22.24 94.02-20.57L94.02-20.57Q94.65-20.11 94.65-19.48 94.65-18.85 94.3-18.48 93.96-18.1 93.5-18.1 93.04-18.1 92.81-18.28L92.81-18.28Q90.62-19.54 88.21-19.48L88.21-19.48Q85.05-19.48 83.27-17.13L83.27-17.13Q81.26-14.71 81.26-10.92L81.26-10.92Q81.26-7.41 82.69-5L82.69-5Q84.42-2.24 88.21-2.24L88.21-2.24Q90.28-2.24 93.27-3.68L93.27-3.68Q94.07-4.14 94.65-3.45L94.65-3.45Q94.99-3.1 94.99-2.5 94.99-1.9 94.25-1.29 93.5-0.69 92.46-0.34L92.46-0.34Q89.94 0.52 87.58 0.49 85.22 0.46 83.33-0.4 81.43-1.26 80.16-2.93L80.16-2.93Q77.52-6.09 77.52-10.92ZM110.62-13.28L110.62-13.28Q111.83-13.28 113.04-13.22L113.04-13.22 113.04-15.06Q113.04-19.54 108.04-19.54L108.04-19.54Q105.79-19.54 104.76-19.14L104.76-19.14Q102.92-18.45 102.12-17.96 101.31-17.47 100.85-17.47 100.39-17.47 99.99-17.82 99.59-18.16 99.59-18.74L99.59-18.74Q99.59-19.2 100.1-19.66L100.1-19.66Q102.81-22.24 108.09-22.24L108.09-22.24Q114.19-22.24 115.91-18.16L115.91-18.16Q116.48-16.72 116.48-14.83L116.48-14.83 116.37-1.55Q116.37-0.8 115.85-0.4 115.33 0 114.7 0 114.07 0 113.55-0.34 113.04-0.69 113.04-1.49L113.04-1.49 113.04-3.56Q111.66-0.57 108.09 0.17L108.09 0.17Q107 0.46 105.62 0.46 104.24 0.46 102.89 0.06 101.54-0.34 100.51-1.21L100.51-1.21Q98.38-2.99 98.38-6.03L98.38-6.03Q98.38-13.28 110.62-13.28ZM113.04-8.74L113.04-10.69Q112.12-10.57 110.91-10.57 109.7-10.57 108.44-10.55 107.17-10.52 106.02-10.26 104.88-10 103.96-9.48L103.96-9.48Q102-8.45 101.89-6.09L101.89-6.09Q101.89-4.25 103.38-3.22L103.38-3.22Q104.53-2.3 106.66-2.24L106.66-2.24Q109.24-2.24 111.14-3.91L111.14-3.91Q112.86-5.52 113.04-8.74L113.04-8.74ZM134.59-1.26L134.59-1.26Q134.59 0.46 130.5 0.46L130.5 0.46Q127.46 0.46 126.19-1.21L126.19-1.21Q124.82-2.99 124.7-7.07L124.7-7.07 124.7-19.14 122.17-19.14Q121.48-19.14 121.08-19.57 120.68-20 120.68-20.46L120.68-20.46Q120.68-20.92 121.02-21.38 121.37-21.84 122.17-21.84L122.17-21.84 124.93-21.84 125.16-28.05Q125.27-28.74 125.79-29.11 126.31-29.48 126.88-29.48 127.46-29.48 127.86-29.14 128.26-28.79 128.26-28.05L128.26-28.05 128.26-21.84 132.23-21.84Q132.92-21.84 133.29-21.38 133.67-20.92 133.67-20.46L133.67-20.46Q133.67-19.89 133.29-19.51 132.92-19.14 132.23-19.14L132.23-19.14 128.26-19.14 128.26-8.97Q128.26-4.71 128.55-3.82 128.84-2.93 129.47-2.59 130.1-2.24 131.02-2.24L131.02-2.24 133.26-2.41Q133.9-2.41 134.24-2.01 134.59-1.61 134.59-1.26ZM142.63-29.43L142.63-29.43Q142.63-28.51 142-27.93 141.36-27.36 140.21-27.36 139.07-27.36 138.43-27.93 137.8-28.51 137.8-29.43L137.8-29.43Q137.8-30.23 138.43-30.8 139.07-31.38 140.24-31.38 141.42-31.38 142.03-30.8 142.63-30.23 142.63-29.43ZM138.49-1.72L138.49-20Q138.49-20.86 139.07-21.35 139.64-21.84 140.1-21.84 140.56-21.84 140.85-21.7 141.13-21.55 141.42-21.26L141.42-21.26Q142.05-20.86 142.05-20L142.05-20 142.05-1.72Q142.05-0.86 141.48-0.43 140.9 0 140.21 0L140.21 0Q139.53 0 139.01-0.43 138.49-0.86 138.49-1.72L138.49-1.72ZM147.28-10.86L147.28-10.86Q147.28-12.93 147.94-15 148.6-17.07 149.98-18.74L149.98-18.74Q152.86-22.24 158.14-22.24 163.43-22.24 166.3-18.74L166.3-18.74Q169.01-15.4 169.01-10.92L169.01-10.92Q169.01-6.38 166.3-3.1L166.3-3.1Q163.43 0.46 158.14 0.46 152.86 0.46 149.98-3.1L149.98-3.1Q147.28-6.32 147.28-10.86ZM151.02-10.86L151.02-10.86Q151.02-9.48 151.39-7.93 151.76-6.38 152.74-5.06L152.74-5.06Q154.7-2.24 158.14-2.24L158.14-2.24Q161.76-2.24 163.55-5.06L163.55-5.06Q165.21-7.7 165.21-10.92L165.21-10.92Q165.21-14.25 163.55-16.67L163.55-16.67Q161.71-19.54 158.14-19.54L158.14-19.54Q154.7-19.54 152.74-16.67L152.74-16.67Q151.02-14.31 151.02-10.86ZM174.23-1.61L174.23-20.17Q174.23-20.92 174.81-21.38 175.38-21.84 175.96-21.84L175.96-21.84Q177.16-21.84 177.51-20.92 177.85-20 177.68-18.16L177.68-18.16Q178.37-19.89 180.67-21.15L180.67-21.15Q182.68-22.24 184.66-22.24 186.65-22.24 188.03-21.75 189.41-21.26 190.55-20.23L190.55-20.23Q192.85-18.05 192.85-13.79L192.85-13.79 192.85-1.61Q192.85-0.8 192.25-0.4 191.65 0 191.01 0L191.01 0Q190.32 0 189.81-0.43 189.29-0.86 189.29-1.61L189.29-1.61 189.29-14.02Q189.29-16.72 187.8-18.16L187.8-18.16Q186.42-19.54 184.35-19.54L184.35-19.54Q181.59-19.54 179.64-17.93L179.64-17.93Q177.68-16.21 177.68-12.64L177.68-12.64 177.68-1.61Q177.68-0.8 177.11-0.4 176.53 0 175.84 0L175.84 0Q175.15 0 174.69-0.43 174.23-0.86 174.23-1.61L174.23-1.61Z" opacity="1" transform="matrix(1,0,0,1,0,0)" fill="#000000" class="undefined-text-1" data-fill-palette-color="secondary" id="text-1"></path></svg></g></svg></g></svg></g></svg></g><g></g></svg></g><defs></defs></svg><rect width="395.5199999999999" height="128.9160087540933" fill="none" stroke="none" visibility="hidden"></rect></g></svg></g></svg>